<?xml version="1.0" encoding="utf-8"?>
<!-- Generator: Adobe Illustrator 25.2.1, SVG Export Plug-In . SVG Version: 6.00 Build 0)  -->
<svg version="1.1" id="Ebene_1" xmlns="http://www.w3.org/2000/svg" xmlns:xlink="http://www.w3.org/1999/xlink" x="0px" y="0px"
	 viewBox="0 0 511.5 316.8" style="enable-background:new 0 0 511.5 316.8;" xml:space="preserve">
<style type="text/css">
	.st0{fill:#00569D;}
	.st1{fill:#00965F;}
	.st2{fill:#FAB900;}
	.st3{fill:#E20613;}
	.st4{fill:#1D1D1B;}
</style>
<polygon class="st0" points="315.5,107.2 459.4,24.3 459.4,0 315.5,83 315.5,107.3 315.5,107.2 "/>
<polygon class="st1" points="315.5,141.1 459.4,58.2 459.4,33.9 315.5,116.9 315.5,141.2 315.5,141.1 "/>
<polygon class="st2" points="315.5,175 459.4,92.1 459.4,67.8 315.5,150.8 315.5,175.1 315.5,175 "/>
<polygon class="st3" points="315.5,208.8 459.4,125.9 459.4,101.7 315.5,184.7 315.5,209 315.5,208.8 "/>
<path class="st4" d="M102.7,259.5L102.7,259.5c0-13.5,2.3-45.8,41.7-47.1l0,0c40.9,0.6,37.2,42.5,37.3,49h-53.8
	c0.3,4.2,2.2,21.1,16.7,30.4l0,0c13.9,9.6,34.8-0.8,34.8-0.8v21c0,0-13.9,5.1-28.2,4.5l0,0C142.3,316.6,102.2,315.2,102.7,259.5
	L102.7,259.5z M155.9,243c-0.3-2.1-1.8-10.6-13.1-10.9l0,0c-10.8,0-13.3,9-13.9,10.9H155.9L155.9,243z"/>
<polygon class="st4" points="69.8,314.6 69.8,261.8 27.8,261.8 27.8,314.6 0,314.6 0,184.1 27.8,184.1 27.8,239.9 69.8,239.9 
	69.8,184.1 97.6,184.1 97.6,314.6 69.8,314.6 "/>
<path class="st4" d="M346.7,260.5L346.7,260.5c0.9-41.7,29-47.9,44.4-47.9l0,0c37,0,37.3,29.1,37.3,39.8h-28c0,0,2.4-19.4-11.1-19
	l0,0c-12.9,0.4-14.7,16.3-14.7,23.1l0,0c0,9.2,2.4,19.2,7.9,26.7l0,0c5.5,7.5,13.9,12.6,26.9,12.7l0,0c6.2,0,12.3-1.2,18-3.5v19.2
	c0,0-14.5,5.1-29.3,5.1l0,0C384,316.7,347.1,312.6,346.7,260.5L346.7,260.5z"/>
<path class="st4" d="M257.5,214.8v-30.7l26.6-15.3v46h27v20.6h-27v41.9c-0.5,19,7.1,18,11.6,18.5l0,0c4.2,0.1,12.5-2.4,12.5-2.4
	v21.2c0,0-12.1,2.1-20.1,2l0,0c-6.2-0.2-31.5,0.9-30.6-28.6l0,0v-52.6h-31.3v41.9c0.2,7.5-0.7,18.3,11.6,18.5
	c3.2,0.1,12.5-2.4,12.5-2.4v21.2c0,0-14.2,2.2-22.4,2l0,0c-9.2-0.6-28.5,0.2-28.4-28.6l0,0v-52.6h-17.8v-20.6h17.8v-30.7l26.6-15.3
	v46H257.5z"/>
<path class="st4" d="M484.8,314.6V258c0.2-19.4-2.1-19.4-6.7-19.3l0,0c-15.1,0.3-18.9,25.3-18.7,32.4h-0.1v43.5h-26.6V184.1
	l26.6-15.3v56.5c1.2-1.6,10.3-13,24.7-12.6l0,0c7.3,0,27.2,3.3,27.4,33.8l0,0v68.1L484.8,314.6z"/>
<polygon class="st4" points="315.5,314.6 315.5,214.8 342.2,214.8 342.2,314.6 315.5,314.6 "/>
</svg>
